<?xml version="1.0" standalone="no"?>
<!DOCTYPE svg PUBLIC "-//W3C//DTD SVG 20010904//EN"
 "http://www.w3.org/TR/2001/REC-SVG-20010904/DTD/svg10.dtd">
<svg version="1.0" xmlns="http://www.w3.org/2000/svg"
 width="57.000000pt" height="57.000000pt" viewBox="0 0 57.000000 57.000000"
 preserveAspectRatio="xMidYMid meet">

<g transform="translate(0.000000,57.000000) scale(0.100000,-0.100000)"
fill="#000000" stroke="none">
<path d="M290 491 c0 -10 50 -25 57 -18 2 3 -10 9 -26 15 -17 6 -31 7 -31 3z"/>
<path d="M210 459 c-33 -9 -80 -50 -80 -68 0 -5 9 -19 20 -32 l20 -24 -11 28
c-11 24 -9 30 11 52 33 36 56 32 64 -9 l7 -34 59 -1 c33 0 60 3 60 7 0 5 -25
7 -55 6 -30 -1 -55 -1 -55 0 0 0 -4 16 -10 35 l-9 33 69 -4 c38 -2 64 0 57 4
-24 13 -112 17 -147 7z"/>
<path d="M261 428 c-1 -22 11 -29 29 -16 12 8 12 9 -2 4 -10 -3 -18 1 -21 12
-4 16 -5 16 -6 0z"/>
<path d="M200 386 c0 -15 18 -31 26 -23 7 7 -7 37 -17 37 -5 0 -9 -6 -9 -14z"/>
<path d="M34 353 c10 -38 19 -89 20 -113 1 -28 19 -31 25 -3 2 10 7 21 12 24
6 3 6 14 3 24 -7 18 -8 18 -15 -1 -5 -15 -8 -10 -14 21 -9 56 -13 65 -25 65
-6 0 -9 -8 -6 -17z"/>
<path d="M501 341 c-13 -24 -14 -51 -2 -51 5 0 13 -9 16 -21 7 -20 7 -20 21
-1 11 17 11 24 -6 56 -17 35 -19 36 -29 17z"/>
<path d="M15 330 c-3 -5 -1 -18 4 -27 9 -16 10 -14 11 10 0 28 -5 34 -15 17z"/>
<path d="M235 331 c-3 -5 5 -11 17 -13 35 -5 88 3 88 13 0 12 -97 12 -105 0z"/>
<path d="M414 292 c16 -49 -35 -82 -125 -82 -37 0 -49 4 -49 15 0 12 14 15 63
15 67 0 87 11 86 45 0 19 -1 19 -9 -2 -8 -19 -17 -23 -50 -23 -33 0 -40 3 -40
20 0 11 -4 20 -9 20 -5 0 -7 -9 -4 -20 5 -17 0 -20 -27 -20 -25 0 -31 -3 -26
-16 3 -9 6 -22 6 -29 0 -19 53 -28 108 -20 56 8 104 51 95 84 -3 12 -10 24
-15 27 -6 4 -8 -2 -4 -14z"/>
<path d="M235 290 c-3 -5 -1 -10 4 -10 6 0 11 5 11 10 0 6 -2 10 -4 10 -3 0
-8 -4 -11 -10z"/>
<path d="M320 290 c0 -5 5 -10 11 -10 5 0 7 5 4 10 -3 6 -8 10 -11 10 -2 0 -4
-4 -4 -10z"/>
<path d="M361 284 c0 -11 3 -14 6 -6 3 7 2 16 -1 19 -3 4 -6 -2 -5 -13z"/>
<path d="M457 263 c-12 -12 -7 -22 13 -26 13 -3 11 -4 -6 -3 -15 0 -29 -4 -31
-11 -2 -6 3 -10 14 -8 10 2 26 4 36 4 25 1 24 51 -1 51 -10 0 -22 -3 -25 -7z"/>
<path d="M200 235 c0 -14 4 -25 9 -25 4 0 6 11 3 25 -2 14 -6 25 -8 25 -2 0
-4 -11 -4 -25z"/>
<path d="M126 198 c1 -24 3 -45 4 -48 1 -3 2 -9 1 -13 -1 -4 6 -18 15 -30 15
-21 16 -19 12 41 -3 38 -10 69 -20 78 -13 14 -15 11 -12 -28z"/>
<path d="M91 186 c-7 -8 -8 -17 -3 -20 6 -3 13 1 16 10 9 23 2 28 -13 10z"/>
<path d="M460 175 c0 -30 6 -32 19 -6 8 14 7 20 -4 25 -11 4 -15 -2 -15 -19z"/>
<path d="M243 174 c16 -8 31 -13 35 -10 8 8 1 12 -33 20 l-30 6 28 -16z"/>
<path d="M372 182 c-14 -9 -6 -42 10 -42 6 0 4 8 -3 18 -13 15 -12 16 3 4 10
-8 14 -20 11 -29 -4 -10 -2 -14 4 -10 7 5 9 -1 6 -15 l-6 -23 23 22 23 21 -24
31 c-27 33 -29 34 -47 23z"/>
<path d="M190 164 c0 -8 5 -12 10 -9 13 8 13 -58 0 -71 -7 -7 -2 -14 15 -22
17 -8 24 -8 20 -1 -4 5 -4 27 0 47 6 31 8 34 17 19 9 -18 10 -18 24 0 13 16
15 13 12 -29 -3 -43 -1 -48 18 -48 19 0 20 4 14 45 -6 42 1 60 14 33 3 -7 5
-4 3 7 -2 16 -9 19 -38 17 -20 -2 -53 4 -73 12 -32 13 -36 13 -36 0z"/>
</g>
</svg>
