<?xml version="1.0" standalone="no"?>
<!DOCTYPE svg PUBLIC "-//W3C//DTD SVG 20010904//EN"
 "http://www.w3.org/TR/2001/REC-SVG-20010904/DTD/svg10.dtd">
<svg version="1.0" xmlns="http://www.w3.org/2000/svg"
 width="309.000000pt" height="79.000000pt" viewBox="0 0 309.000000 79.000000"
 preserveAspectRatio="xMidYMid meet">

<g transform="translate(0.000000,79.000000) scale(0.100000,-0.100000)"
fill="#000000" stroke="none">
<path d="M689 605 l-45 -31 23 -49 c20 -43 23 -66 23 -167 0 -64 -3 -123 -6
-132 -5 -12 -20 -16 -59 -16 l-52 0 -33 72 c-18 40 -35 75 -37 77 -2 3 -17 -8
-33 -24 -26 -25 -28 -31 -16 -44 7 -9 21 -31 30 -49 15 -29 15 -32 1 -32 -10
0 -26 23 -42 58 -14 31 -28 59 -30 61 -2 3 -16 -8 -33 -24 l-29 -28 19 -25
c23 -29 25 -42 7 -42 -8 0 -22 18 -32 40 -10 22 -20 40 -23 40 -3 0 -18 -12
-34 -27 -24 -23 -26 -29 -14 -42 33 -37 29 -64 -16 -108 l-44 -43 -64 65 c-63
64 -63 65 -53 100 l11 35 -26 -19 c-49 -35 -74 -68 -68 -89 9 -26 150 -162
170 -162 8 0 51 32 95 70 l79 70 467 0 c317 0 473 3 487 11 l20 11 -21 14
c-20 15 -21 23 -21 240 l0 224 -49 -32 -48 -33 18 -37 c16 -31 19 -61 19 -183
l0 -145 -54 0 -53 0 -33 73 c-18 39 -35 74 -37 76 -2 3 -17 -8 -33 -24 -26
-25 -28 -31 -16 -44 7 -9 21 -31 30 -49 15 -29 15 -32 1 -32 -10 0 -26 23 -42
58 -14 31 -28 59 -30 61 -2 3 -16 -8 -33 -24 l-29 -28 19 -25 c23 -29 25 -42
7 -42 -8 0 -22 18 -32 40 -10 22 -21 40 -25 40 -3 0 -18 -13 -33 -28 -21 -22
-24 -31 -15 -40 9 -9 5 -12 -18 -12 -59 0 -63 15 -66 231 l-3 194 -46 -30z"/>
<path d="M1420 615 c-19 -15 -41 -30 -48 -34 -11 -6 -10 -16 7 -49 19 -36 21
-59 21 -190 0 -179 5 -192 87 -199 28 -3 58 -1 67 4 14 8 10 12 -22 21 -66 20
-66 22 -72 259 l-5 214 -35 -26z"/>
<path d="M2149 605 l-46 -32 18 -34 c16 -29 18 -60 19 -216 l0 -183 438 0
c370 0 441 2 458 15 15 11 16 14 4 15 -10 0 -33 36 -60 92 -25 51 -46 95 -47
97 -2 3 -17 -8 -33 -24 -26 -25 -28 -31 -16 -44 7 -9 21 -31 30 -48 15 -29 15
-33 1 -33 -9 0 -27 24 -42 58 -15 31 -29 59 -30 61 -2 3 -16 -8 -33 -24 l-29
-28 19 -25 c24 -30 25 -42 5 -42 -8 0 -22 18 -31 40 -9 22 -19 40 -23 40 -4 0
-19 -13 -34 -28 -21 -22 -24 -31 -15 -40 9 -9 3 -12 -28 -12 -37 0 -41 3 -59
42 l-20 43 -112 3 -113 3 0 169 c0 94 -3 170 -6 170 -3 0 -19 -10 -34 -22 -15
-13 -35 -27 -44 -33 -16 -9 -16 -13 3 -55 17 -38 21 -66 21 -182 l0 -138 -38
0 c-68 0 -71 10 -74 232 l-3 195 -46 -32z m396 -385 c4 -6 -20 -10 -64 -10
-38 0 -73 5 -76 10 -4 6 20 10 64 10 38 0 73 -4 76 -10z"/>
<path d="M333 495 l-28 -25 35 -29 c19 -16 31 -33 26 -38 -4 -4 -15 2 -23 14
l-15 23 -29 -21 c-36 -26 -36 -32 2 -59 29 -21 31 -21 49 -5 18 17 21 17 45 1
29 -19 55 -8 55 23 -1 24 -36 66 -44 52 -4 -6 -12 -11 -19 -11 -8 0 -8 3 1 12
17 17 15 36 -7 64 l-19 25 -29 -26z"/>
<path d="M883 495 l-28 -25 35 -29 c19 -16 31 -33 26 -38 -4 -4 -15 2 -23 14
l-15 23 -29 -21 c-36 -26 -36 -32 2 -59 29 -21 31 -21 49 -5 18 17 21 17 45 1
29 -19 55 -8 55 23 -1 24 -36 66 -44 52 -4 -6 -12 -11 -19 -11 -8 0 -8 3 1 12
17 17 15 36 -7 64 l-19 25 -29 -26z"/>
<path d="M1883 350 c-46 -49 -83 -95 -83 -104 0 -9 11 -39 25 -66 29 -58 30
-71 9 -112 l-16 -31 29 7 c43 11 74 35 85 67 10 28 12 29 75 29 76 0 75 -5 10
125 -22 44 -43 101 -46 126 l-6 47 -82 -88z m52 -103 c8 -21 11 -37 5 -37 -14
0 -42 58 -34 71 8 13 10 11 29 -34z"/>
</g>
</svg>
